<svg id="Capa_1" enable-background="new 0 0 512.008 512.008" height="512" viewBox="0 0 512.008 512.008" width="512" xmlns="http://www.w3.org/2000/svg"><g><path d="m96.398 184.5h239.767c4.142 0 7.5-3.357 7.5-7.5s-3.358-7.5-7.5-7.5h-239.767c-4.142 0-7.5 3.357-7.5 7.5s3.358 7.5 7.5 7.5z" fill="#fff"/>
<path d="m96.398 241.996h239.767c4.142 0 7.5-3.357 7.5-7.5s-3.358-7.5-7.5-7.5h-239.767c-4.142 0-7.5 3.357-7.5 7.5s3.358 7.5 7.5 7.5z" fill="#fff"/>
<path d="m407.349 362.725c0-43.509-35.098-78.615-78.615-78.615-43.508 0-78.615 35.097-78.615 78.614 0 43.511 35.098 78.614 78.615 78.616h.001c43.509 0 78.615-35.098 78.614-78.615zm-142.23 0c0-35.215 28.387-63.615 63.615-63.615 35.218 0 63.615 28.39 63.615 63.615 0 35.217-28.387 63.615-63.614 63.615-35.217 0-63.616-28.389-63.616-63.615z" fill="#fff"/>
<path d="m469.597 462.968-9.192-9.192c-2.929-2.928-7.678-2.928-10.606 0-2.929 2.93-2.929 7.678 0 10.607l9.193 9.192c5.361 5.36 5.362 14.043-.001 19.406s-14.04 5.364-19.406-.001l-43.721-43.721c7.062-5.488 13.732-12.102 19.406-19.406l9.78 9.781c2.929 2.928 7.678 2.929 10.606-.001 2.929-2.929 2.929-7.677 0-10.606l-11.882-11.881c25.759-45.014 16.795-103.952-25.203-138.774 0-10.044 0-204.495 0-214.521 0-13.266-10.793-24.059-24.059-24.059h-8.541v-28.612c0-6.164-5.016-11.18-11.18-11.18h-26.678c-6.165 0-11.18 5.016-11.18 11.18v28.611h-34.409v-28.611c0-6.164-5.015-11.18-11.18-11.18h-26.678c-6.165 0-11.18 5.016-11.18 11.18v28.611h-34.409v-28.611c0-6.164-5.015-11.18-11.18-11.18h-26.679c-6.165 0-11.18 5.016-11.18 11.18v28.611h-34.408v-28.611c0-6.164-5.016-11.18-11.18-11.18h-26.678c-6.165 0-11.18 5.016-11.18 11.18v28.611h-4.861c-15.295 0-27.739 12.443-27.739 27.738v115.81c0 4.143 3.358 7.5 7.5 7.5s7.5-3.357 7.5-7.5v-56.565h334.579v141.146c-.064-.037-.129-.07-.193-.107-17.153-9.87-36.319-14.602-54.645-14.602-28.67 0-55.882 10.953-76.625 31.282h-155.71c-4.142 0-7.5 3.357-7.5 7.5s3.358 7.5 7.5 7.5h142.892c-9.045 12.738-15.194 27.176-18.115 42.496h-124.777c-4.142 0-7.5 3.357-7.5 7.5s3.358 7.5 7.5 7.5h122.971c-.721 14.08 1.179 28.519 6.147 42.497h-129.118c-4.142 0-7.5 3.357-7.5 7.5s3.358 7.5 7.5 7.5h135.771c9.689 18.019 24.267 32.817 41.182 42.727h-211.62c-7.024 0-12.739-5.715-12.739-12.739v-226.135c0-4.143-3.358-7.5-7.5-7.5s-7.5 3.357-7.5 7.5v226.135c0 15.296 12.443 27.739 27.739 27.739 273.294 0 258.617.132 260.085-.25 2.304.145 4.611.224 6.918.224 18.815 0 37.627-4.813 54.421-14.423l45.823 45.823c11.227 11.224 29.393 11.228 40.619 0 11.225-11.223 11.225-29.395 0-40.619zm-137.664-447.968h19.038v58.596c0 6.008-5.53 10.538-11.435 9.326-4.334-.889-7.603-4.733-7.603-9.326 0-5.947 0-53.099 0-58.596zm-64.409 0v58.596c0 5.248-4.269 9.52-9.519 9.52-5.249 0-9.519-4.271-9.519-9.52 0-6.295 0-50.76 0-58.596zm-102.485 0h19.038v58.596c0 5.248-4.269 9.52-9.519 9.52-5.248 0-9.519-4.27-9.519-9.52 0-5.947 0-53.099 0-58.596zm-83.447 0h19.038v58.596c0 6.004-5.528 10.538-11.435 9.326-4.334-.889-7.603-4.733-7.603-9.326 0-5.947 0-53.099 0-58.596zm-32.6 96.773v-44.244c0-7.023 5.715-12.738 12.739-12.738h4.861v18.805.001c0 13.519 10.999 24.519 24.519 24.519 13.518 0 24.519-10.997 24.519-24.519v-.001-18.805h34.409v18.805.001c0 13.519 10.999 24.519 24.519 24.519 13.518 0 24.519-10.997 24.519-24.519v-.001-18.805h34.409v18.806c0 13.52 10.999 24.519 24.519 24.519 13.518 0 24.519-10.997 24.519-24.519v-.001-18.805h34.409v18.805.001c0 13.519 10.999 24.519 24.519 24.519s24.519-10.999 24.519-24.519v-18.806h8.541c4.995 0 9.059 4.063 9.059 9.059v47.924h-334.579zm212.91 317.783c-59.368-59.367-17.159-161.301 66.832-161.301 75.274 0 120.034 83.765 79.062 146.267-33.145 50.484-103.92 57.009-145.894 15.034z" fill="#fff"/>
</g></svg>